<svg xmlns="http://www.w3.org/2000/svg" xmlns:xlink="http://www.w3.org/1999/xlink" contentStyleType="text/css" data-diagram-type="CLASS" height="235px" preserveAspectRatio="none" style="width:526px;height:235px;background:#FFFFFF;" version="1.1" viewBox="0 0 526 235" width="526px" zoomAndPan="magnify"><defs/><g><!--class TestableLogic--><g class="entity" data-entity="TestableLogic" data-source-line="3" data-uid="ent0002" id="entity_TestableLogic"><rect fill="#F1F1F1" height="96.8906" rx="2.5" ry="2.5" style="stroke:#181818;stroke-width:0.5;" width="142.5254" x="7" y="7"/><ellipse cx="28.1963" cy="23" fill="#ADD1B2" rx="11" ry="11" style="stroke:#181818;stroke-width:1;"/><path d="M31.165,28.6406 Q30.5869,28.9375 29.9463,29.0781 Q29.3057,29.2344 28.6025,29.2344 Q26.1025,29.2344 24.7744,27.5938 Q23.4619,25.9375 23.4619,22.8125 Q23.4619,19.6875 24.7744,18.0313 Q26.1025,16.375 28.6025,16.375 Q29.3057,16.375 29.9463,16.5313 Q30.6025,16.6875 31.165,16.9844 L31.165,19.7031 Q30.54,19.125 29.9463,18.8594 Q29.3525,18.5781 28.7275,18.5781 Q27.3838,18.5781 26.6963,19.6563 Q26.0088,20.7188 26.0088,22.8125 Q26.0088,24.9063 26.6963,25.9844 Q27.3838,27.0469 28.7275,27.0469 Q29.3525,27.0469 29.9463,26.7813 Q30.54,26.5 31.165,25.9219 L31.165,28.6406 Z " fill="#000000"/><text fill="#000000" font-family="sans-serif" font-size="14" lengthAdjust="spacing" textLength="96.7559" x="43.5732" y="27.8467">TestableLogic</text><line style="stroke:#181818;stroke-width:0.5;" x1="8" x2="148.5254" y1="39" y2="39"/><text fill="#000000" font-family="sans-serif" font-size="14" lengthAdjust="spacing" textLength="130.5254" x="13" y="55.9951">-complex behavior</text><text fill="#000000" font-family="sans-serif" font-size="14" lengthAdjust="spacing" textLength="112.4238" x="13" y="72.292">-state machines</text><text fill="#000000" font-family="sans-serif" font-size="14" lengthAdjust="spacing" textLength="88.3682" x="13" y="88.5889">-calculations</text><line style="stroke:#181818;stroke-width:0.5;" x1="8" x2="148.5254" y1="95.8906" y2="95.8906"/></g><!--class IHumbleObject--><g class="entity" data-entity="IHumbleObject" data-source-line="9" data-uid="ent0003" id="entity_IHumbleObject"><rect fill="#F1F1F1" height="64.2969" rx="2.5" ry="2.5" style="stroke:#181818;stroke-width:0.5;" width="136.1523" x="182.19" y="163.89"/><ellipse cx="197.19" cy="179.89" fill="#B4A7E5" rx="11" ry="11" style="stroke:#181818;stroke-width:1;"/><path d="M193.1119,175.6556 L193.1119,173.4994 L200.5025,173.4994 L200.5025,175.6556 L198.0338,175.6556 L198.0338,183.7338 L200.5025,183.7338 L200.5025,185.89 L193.1119,185.89 L193.1119,183.7338 L195.5806,183.7338 L195.5806,175.6556 L193.1119,175.6556 Z " fill="#000000"/><text fill="#000000" font-family="sans-serif" font-size="14" font-style="italic" lengthAdjust="spacing" textLength="104.1523" x="211.19" y="184.7367">IHumbleObject</text><line style="stroke:#181818;stroke-width:0.5;" x1="183.19" x2="317.3423" y1="195.89" y2="195.89"/><line style="stroke:#181818;stroke-width:0.5;" x1="183.19" x2="317.3423" y1="203.89" y2="203.89"/><text fill="#000000" font-family="sans-serif" font-size="14" lengthAdjust="spacing" textLength="104.8975" x="188.19" y="220.8851">+primitiveOp()</text></g><!--class HumbleObject--><g class="entity" data-entity="HumbleObject" data-source-line="13" data-uid="ent0004" id="entity_HumbleObject"><rect fill="#F1F1F1" height="92.8906" rx="2.5" ry="2.5" style="stroke:#181818;stroke-width:0.5;" width="132.0234" x="184.25" y="9"/><ellipse cx="199.25" cy="25" fill="#ADD1B2" rx="11" ry="11" style="stroke:#181818;stroke-width:1;"/><path d="M202.2188,30.6406 Q201.6406,30.9375 201,31.0781 Q200.3594,31.2344 199.6563,31.2344 Q197.1563,31.2344 195.8281,29.5938 Q194.5156,27.9375 194.5156,24.8125 Q194.5156,21.6875 195.8281,20.0313 Q197.1563,18.375 199.6563,18.375 Q200.3594,18.375 201,18.5313 Q201.6563,18.6875 202.2188,18.9844 L202.2188,21.7031 Q201.5938,21.125 201,20.8594 Q200.4063,20.5781 199.7813,20.5781 Q198.4375,20.5781 197.75,21.6563 Q197.0625,22.7188 197.0625,24.8125 Q197.0625,26.9063 197.75,27.9844 Q198.4375,29.0469 199.7813,29.0469 Q200.4063,29.0469 201,28.7813 Q201.5938,28.5 202.2188,27.9219 L202.2188,30.6406 Z " fill="#000000"/><text fill="#000000" font-family="sans-serif" font-size="14" lengthAdjust="spacing" textLength="100.0234" x="213.25" y="29.8467">HumbleObject</text><line style="stroke:#181818;stroke-width:0.5;" x1="185.25" x2="315.2734" y1="41" y2="41"/><text fill="#000000" font-family="sans-serif" font-size="14" lengthAdjust="spacing" textLength="104.8975" x="190.25" y="57.9951">+primitiveOp()</text><text fill="#000000" font-family="sans-serif" font-size="14" lengthAdjust="spacing" textLength="80.8076" x="190.25" y="94.5889">{poke HW}</text><line style="stroke:#181818;stroke-width:1;" x1="185.25" x2="212.5205" y1="73.4453" y2="73.4453"/><text fill="#000000" font-family="sans-serif" font-size="14" lengthAdjust="spacing" textLength="75.4824" x="212.5205" y="77.792">production</text><line style="stroke:#181818;stroke-width:1;" x1="288.0029" x2="315.2734" y1="73.4453" y2="73.4453"/></g><!--class MockHumbleObject--><g class="entity" data-entity="MockHumbleObject" data-source-line="19" data-uid="ent0005" id="entity_MockHumbleObject"><rect fill="#F1F1F1" height="92.8906" rx="2.5" ry="2.5" style="stroke:#181818;stroke-width:0.5;" width="168.4727" x="351.03" y="9"/><ellipse cx="366.03" cy="25" fill="#ADD1B2" rx="11" ry="11" style="stroke:#181818;stroke-width:1;"/><path d="M368.9988,30.6406 Q368.4206,30.9375 367.78,31.0781 Q367.1394,31.2344 366.4363,31.2344 Q363.9363,31.2344 362.6081,29.5938 Q361.2956,27.9375 361.2956,24.8125 Q361.2956,21.6875 362.6081,20.0313 Q363.9363,18.375 366.4363,18.375 Q367.1394,18.375 367.78,18.5313 Q368.4363,18.6875 368.9988,18.9844 L368.9988,21.7031 Q368.3738,21.125 367.78,20.8594 Q367.1863,20.5781 366.5613,20.5781 Q365.2175,20.5781 364.53,21.6563 Q363.8425,22.7188 363.8425,24.8125 Q363.8425,26.9063 364.53,27.9844 Q365.2175,29.0469 366.5613,29.0469 Q367.1863,29.0469 367.78,28.7813 Q368.3738,28.5 368.9988,27.9219 L368.9988,30.6406 Z " fill="#000000"/><text fill="#000000" font-family="sans-serif" font-size="14" lengthAdjust="spacing" textLength="136.4727" x="380.03" y="29.8467">MockHumbleObject</text><line style="stroke:#181818;stroke-width:0.5;" x1="352.03" x2="518.5027" y1="41" y2="41"/><text fill="#000000" font-family="sans-serif" font-size="14" lengthAdjust="spacing" textLength="104.8975" x="357.03" y="57.9951">+primitiveOp()</text><text fill="#000000" font-family="sans-serif" font-size="14" lengthAdjust="spacing" textLength="91.5947" x="357.03" y="94.5889">{record call}</text><line style="stroke:#181818;stroke-width:1;" x1="352.03" x2="410.9988" y1="73.4453" y2="73.4453"/><text fill="#000000" font-family="sans-serif" font-size="14" lengthAdjust="spacing" textLength="48.5352" x="410.9988" y="77.792">testing</text><line style="stroke:#181818;stroke-width:1;" x1="459.5339" x2="518.5027" y1="73.4453" y2="73.4453"/></g><!--link TestableLogic to IHumbleObject--><g class="link" data-entity-1="TestableLogic" data-entity-2="IHumbleObject" data-link-type="dependency" data-source-line="25" data-uid="lnk6" id="link_TestableLogic_IHumbleObject"><path codeLine="25" d="M137.46,104.14 C161.85,123.8 184.7572,142.2664 206.5472,159.8164" fill="none" id="TestableLogic-to-IHumbleObject" style="stroke:#181818;stroke-width:1;"/><polygon fill="#181818" points="211.22,163.58,206.7198,154.8194,207.326,160.4437,201.7017,161.0499,211.22,163.58" style="stroke:#181818;stroke-width:1;"/></g><!--link HumbleObject to IHumbleObject--><g class="link" data-entity-1="HumbleObject" data-entity-2="IHumbleObject" data-link-type="extension" data-source-line="26" data-uid="lnk7" id="link_HumbleObject_IHumbleObject"><path codeLine="26" d="M250.26,102.21 C250.26,122.4 250.26,127.6 250.26,145.77" fill="none" id="HumbleObject-to-IHumbleObject" style="stroke:#181818;stroke-width:1;stroke-dasharray:7,7;"/><polygon fill="none" points="250.26,163.77,256.26,145.77,244.26,145.77,250.26,163.77" style="stroke:#181818;stroke-width:1;"/></g><!--link MockHumbleObject to IHumbleObject--><g class="link" data-entity-1="MockHumbleObject" data-entity-2="IHumbleObject" data-link-type="extension" data-source-line="27" data-uid="lnk8" id="link_MockHumbleObject_IHumbleObject"><path codeLine="27" d="M374.17,102.21 C347.34,122.32 330.8936,134.6248 306.7036,152.7548" fill="none" id="MockHumbleObject-to-IHumbleObject" style="stroke:#181818;stroke-width:1;stroke-dasharray:7,7;"/><polygon fill="none" points="292.3,163.55,310.302,157.556,303.1052,147.9536,292.3,163.55" style="stroke:#181818;stroke-width:1;"/></g><!--SRC=[ZP11JWCn34NtEOMNHMWgJe34hfMekW29jSSrhPaaZX9FLRNqxcI60XgwQNR-_ddVTkaa9imOW3oMycIMfUsDbwJnHOuC3ywD7NZbOjXwVjQj49mSrDS0QKYU3z3o3lUY-I9Ngp44f9r4BZzUzDHxDD5OtDavYSRv7ObXkUX3HQ_R3oQxiEyXPGbYikTrcjqD7xu7kS4xvZLLr4rFGrwjHl6Kj6DOl9t_S2kbxdQarIj8tFxoCfFcpR2Q7vdJApNDutGtDqcQpp__zw-ckVPy0G00]--></g></svg>